<svg width="51" height="44" fill="none" xmlns="http://www.w3.org/2000/svg"><path opacity=".2" d="M8.313 41.51C-1.16 37.015-3.027 18.257 5.276 8.485c8.303-9.771 25.178-11.768 32.265-2.48 7.086 9.29 10.526 18.97 3.96 27.328-6.934 8.827-20.825 14.043-33.188 8.177z" fill="#BDD748"/><path d="M25.807 35.845l-7.249-7.174a2.092 2.092 0 00-2.945 0 2.044 2.044 0 000 2.915l8.732 8.642c.814.807 2.13.807 2.945 0l22.1-21.875a2.044 2.044 0 000-2.915 2.09 2.09 0 00-1.472-.605 2.09 2.09 0 00-1.472.605l-20.64 20.407z" fill="#2C2E82"/></svg>